<svg width="110.00000000000001" height="110.00000000000001" xmlns="http://www.w3.org/2000/svg" fill="none">

 <g>
  <title>Layer 1</title>
  <path id="svg_1" fill="#FF4361" d="m75,0l-40,0c-19.33,0 -35,15.67 -35,35l0,40c0,19.33 15.67,35 35,35l40,0c19.33,0 35,-15.67 35,-35l0,-40c0,-19.33 -15.67,-35 -35,-35z" opacity="0.102"/>
  <g stroke="null">
   <g stroke="null" id="svg_3">
    <path stroke="null" fill-rule="nonzero" fill="#ff4361" d="m84.76665,83.46956l-59.53329,0c-0.71471,0 -1.29267,0.58237 -1.29267,1.29708c0,0.71471 0.57795,1.29267 1.29267,1.29267l59.53329,0c0.71471,0 1.29267,-0.57795 1.29267,-1.29267c0,-0.71471 -0.57795,-1.29708 -1.29267,-1.29708zm0,0"/>
    <path stroke="null" fill-rule="nonzero" fill="#ff4361" d="m35.58793,67.93991l-7.76483,0c-0.71471,0 -1.29267,0.58237 -1.29267,1.29708l0,15.52966c0,0.71471 0.57795,1.29267 1.29267,1.29267l7.76483,0c0.71471,0 1.29267,-0.57795 1.29267,-1.29267l0,-15.52966c0,-0.71471 -0.57795,-1.29708 -1.29267,-1.29708zm-1.29267,15.52966l-5.1795,0l0,-12.93991l5.1795,0l0,12.93991zm0,0"/>
    <path stroke="null" fill-rule="nonzero" fill="#ff4361" d="m51.11759,55l-7.76483,0c-0.71471,0 -1.29267,0.57795 -1.29267,1.29267l0,28.47398c0,0.71471 0.57795,1.29267 1.29267,1.29267l7.76483,0c0.71471,0 1.29267,-0.57795 1.29267,-1.29267l0,-28.47398c0,-0.71471 -0.57795,-1.29267 -1.29267,-1.29267zm-1.29267,28.46956l-5.1795,0l0,-25.87982l5.1795,0l0,25.87982zm0,0"/>
    <path stroke="null" fill-rule="nonzero" fill="#ff4361" d="m66.64724,60.17508l-7.76483,0c-0.71471,0 -1.29267,0.58237 -1.29267,1.29708l0,23.29448c0,0.71471 0.57795,1.29267 1.29267,1.29267l7.76483,0c0.71471,0 1.29267,-0.57795 1.29267,-1.29267l0,-23.29448c0,-0.71471 -0.57795,-1.29708 -1.29267,-1.29708zm-1.29267,23.29448l-5.1795,0l0,-20.70474l5.1795,0l0,20.70474zm0,0"/>
    <path stroke="null" fill-rule="nonzero" fill="#ff4361" d="m82.1769,44.64542l-7.76483,0c-0.71471,0 -1.29267,0.58237 -1.29267,1.29708l0,38.82414c0,0.71471 0.57795,1.29267 1.29267,1.29267l7.76483,0c0.71471,0 1.29267,-0.57795 1.29267,-1.29267l0,-38.82414c0,-0.71471 -0.57795,-1.29708 -1.29267,-1.29708zm-1.29267,38.82414l-5.1795,0l0,-36.23439l5.1795,0l0,36.23439zm0,0"/>
    <path stroke="null" fill-rule="nonzero" fill="#ff4361" d="m31.70552,47.23517c-2.85445,0 -5.17508,2.32063 -5.17508,5.17508c0,2.85446 2.32063,5.1795 5.17508,5.1795c2.85445,0 5.17508,-2.32503 5.17508,-5.1795c0,-2.85445 -2.32063,-5.17508 -5.17508,-5.17508zm0,7.76483c-1.42943,0 -2.58975,-1.16031 -2.58975,-2.58975c0,-1.42502 1.16032,-2.58533 2.58975,-2.58533c1.42944,0 2.58975,1.16031 2.58975,2.58533c0,1.42944 -1.16031,2.58975 -2.58975,2.58975zm0,0"/>
    <path stroke="null" fill-rule="nonzero" fill="#ff4361" d="m47.23517,34.29526c-2.85445,0 -5.17508,2.32063 -5.17508,5.17508c0,2.85445 2.32063,5.17508 5.17508,5.17508c2.85445,0 5.17508,-2.32063 5.17508,-5.17508c0,-2.85445 -2.32063,-5.17508 -5.17508,-5.17508zm0,7.76483c-1.42943,0 -2.58975,-1.16472 -2.58975,-2.58975c0,-1.42502 1.16032,-2.58975 2.58975,-2.58975c1.42944,0 2.58975,1.16472 2.58975,2.58975c0,1.42502 -1.16031,2.58975 -2.58975,2.58975zm0,0"/>
    <path stroke="null" fill-rule="nonzero" fill="#ff4361" d="m62.76483,39.47034c-2.85445,0 -5.17508,2.32063 -5.17508,5.17508c0,2.85446 2.32063,5.1795 5.17508,5.1795c2.85445,0 5.17508,-2.32503 5.17508,-5.1795c0,-2.85445 -2.32063,-5.17508 -5.17508,-5.17508zm0,7.76483c-1.42943,0 -2.58975,-1.16031 -2.58975,-2.58975c0,-1.42502 1.16032,-2.58533 2.58975,-2.58533c1.42944,0 2.58975,1.16031 2.58975,2.58533c0,1.42944 -1.16031,2.58975 -2.58975,2.58975zm0,0"/>
    <path stroke="null" fill-rule="nonzero" fill="#ff4361" d="m78.29448,23.94069c-2.85445,0 -5.17508,2.32063 -5.17508,5.17508c0,2.85446 2.32063,5.1795 5.17508,5.1795c2.85445,0 5.17508,-2.32503 5.17508,-5.1795c0,-2.85445 -2.32063,-5.17508 -5.17508,-5.17508zm0,7.76483c-1.42943,0 -2.58975,-1.16031 -2.58975,-2.58975c0,-1.42502 1.16032,-2.58533 2.58975,-2.58533c1.42944,0 2.58975,1.16031 2.58975,2.58533c0,1.42944 -1.16031,2.58975 -2.58975,2.58975zm0,0"/>
    <path stroke="null" fill-rule="nonzero" fill="#ff4361" d="m76.46798,30.94669c-0.50736,-0.50736 -1.32796,-0.50736 -1.83091,0l-10.04134,10.04133c-0.50735,0.50295 -0.50735,1.32356 0,1.83091c0.25148,0.24706 0.58237,0.37502 0.91326,0.37502c0.33089,0 0.66178,-0.12354 0.91766,-0.37502l10.04133,-10.04574c0.50296,-0.50295 0.50296,-1.32354 0,-1.82649zm0,0"/>
    <path stroke="null" fill-rule="nonzero" fill="#ff4361" d="m59.63684,41.65861l-8.31631,-2.36916c-0.69266,-0.20294 -1.40297,0.20295 -1.59708,0.8912c-0.19413,0.68824 0.20294,1.40295 0.89119,1.59708l8.31189,2.37356c0.11912,0.03089 0.23824,0.04853 0.35295,0.04853c0.56471,0 1.08531,-0.37059 1.24855,-0.93972c0.19413,-0.68825 -0.20295,-1.40297 -0.89119,-1.6015zm0,0"/>
    <path stroke="null" fill-rule="nonzero" fill="#ff4361" d="m45.21456,41.08508c-0.44119,-0.56031 -1.25737,-0.65296 -1.81327,-0.20736l-9.75898,7.77806c-0.5603,0.45001 -0.65295,1.26179 -0.20735,1.81768c0.2603,0.32206 0.6353,0.48971 1.01472,0.48971c0.28236,0 0.56471,-0.09265 0.80296,-0.28236l9.75897,-7.77806c0.5603,-0.45 0.65296,-1.26178 0.20295,-1.81767zm0,0"/>
   </g>
  </g>
 </g>
</svg>