<svg width="109.99999999999999" height="109.99999999999999" xmlns="http://www.w3.org/2000/svg" fill="none">

 <g>
  <title>Layer 1</title>
  <path id="svg_1" fill="#E4FFEE" d="m74.67213,0l-40,0c-19.33,0 -35,15.67 -35,35l0,40c0,19.33 15.67,35 35,35l40,0c19.33,0 35,-15.67 35,-35l0,-40c0,-19.33 -15.67,-35 -35,-35z"/>
  <g stroke="null" id="svg_6">
   <path stroke="null" id="svg_2" stroke-width="10px" fill-rule="nonzero" fill="rgb(25.098039%,59.215686%,37.254902%)" d="m54.99749,19.73071c-0.80952,0 -1.4682,0.65868 -1.4682,1.4682l0,67.60219c0,0.80951 0.65868,1.46819 1.4682,1.46819c0.81454,0 1.47322,-0.65868 1.47322,-1.46819l0,-67.60219c0,-0.80952 -0.65868,-1.4682 -1.47322,-1.4682zm0,0"/>
   <path stroke="null" id="svg_3" stroke-width="10px" fill-rule="nonzero" fill="rgb(25.098039%,59.215686%,37.254902%)" d="m54.99749,25.60851c-10.52875,0 -19.10159,6.59177 -19.10159,14.697c0,5.5912 4.01742,10.62427 10.49356,13.13327c0.181,0.06536 0.35197,0.10057 0.53297,0.10057c0.58828,0 1.1464,-0.357 1.36763,-0.94528c0.30169,-0.75421 -0.07542,-1.60394 -0.83466,-1.89558c-5.31968,-2.0615 -8.61808,-6.04372 -8.61808,-10.39298c0,-6.4862 7.25045,-11.7556 16.16017,-11.7556c8.91474,0 16.16519,5.2694 16.16519,11.7556c0,0.80951 0.65868,1.46819 1.47322,1.46819c0.80952,0 1.4682,-0.65868 1.4682,-1.46819c0,-8.10523 -8.57284,-14.697 -19.10661,-14.697zm0,0"/>
   <path stroke="null" id="svg_4" stroke-width="10px" fill-rule="nonzero" fill="rgb(25.098039%,59.215686%,37.254902%)" d="m63.60552,56.56624c-0.75421,-0.29666 -1.60396,0.08045 -1.89558,0.83968c-0.30168,0.75421 0.07543,1.60396 0.83466,1.89558c5.31968,2.0615 8.61808,6.04372 8.61808,10.39299c0,6.48619 -7.25045,11.75559 -16.16519,11.75559c-8.90972,0 -16.16017,-5.2694 -16.16017,-11.75559c0,-0.80952 -0.65868,-1.4682 -1.47322,-1.4682c-0.80952,0 -1.4682,0.65868 -1.4682,1.4682c0,8.10522 8.57284,14.697 19.10159,14.697c10.53377,0 19.10661,-6.59179 19.10661,-14.697c0,-5.5912 -4.01742,-10.62428 -10.49858,-13.12825zm0,0"/>
   <path stroke="null" id="svg_5" stroke-width="10px" fill-rule="nonzero" fill="rgb(25.098039%,59.215686%,37.254902%)" d="m63.62569,56.5763c-4.30401,-1.73468 -6.34037,-2.40843 -8.49741,-3.11739c-1.91065,-0.63354 -3.89172,-1.28718 -7.67281,-2.76041c-0.7542,-0.30168 -1.60394,0.08045 -1.9006,0.83466c-0.29666,0.75421 0.08045,1.60898 0.83466,1.90563c3.85651,1.49836 5.86773,2.16207 7.81863,2.80566c2.11178,0.69387 4.10289,1.35254 8.32142,3.05202c0.17598,0.0704 0.36202,0.10559 0.54806,0.10559c0.58326,0 1.13132,-0.34693 1.36261,-0.9151c0.30168,-0.74919 -0.06034,-1.60396 -0.81455,-1.91067zm0,0"/>
  </g>
 </g>
</svg>