<svg width="110" height="110" xmlns="http://www.w3.org/2000/svg" xmlns:xlink="http://www.w3.org/1999/xlink" fill="none">
 <defs>
  <path id="svg_1" fill-rule="nonzero" fill="rgb(54,98,246)" d="m43.42578,33.88281c-1.07812,-2.25 -4.9414,-5.375 -8.67187,-8.39453c-2.07813,-1.67969 -4.04688,-3.26953 -5.30078,-4.52344c-0.3125,-0.3164 -0.78125,-0.41796 -1.19532,-0.26953c-0.77343,0.28125 -1.25,0.4961 -1.625,0.66407c-0.57422,0.2539 -0.76562,0.34375 -1.53906,0.42187c-0.33984,0.03125 -0.64844,0.21484 -0.83984,0.5c-1.61719,2.42188 -3.29688,2.21484 -4.41797,1.83984c-0.35547,-0.11718 -0.42188,-0.27343 -0.45703,-0.41796c-0.23828,-1.00782 0.96875,-3.34766 2.53515,-4.91407c3.72266,-3.72656 5.64453,-4.66015 9.69922,-2.84765c4.60156,2.05859 9.21094,3.67187 9.25781,3.6875c0.60547,0.20703 1.25391,-0.10938 1.46094,-0.70703c0.20703,-0.59766 -0.10937,-1.25 -0.70703,-1.46094c-0.04687,-0.01563 -4.5625,-1.59375 -9.07422,-3.61328c-5.2539,-2.34766 -8.13672,-0.80078 -12.2539,3.32031c-1.57032,1.56641 -3.69922,4.73828 -3.14844,7.0625c0.23437,0.99219 0.93359,1.72266 1.96875,2.06641c2.59765,0.85546 4.96484,0.03515 6.73047,-2.30469c0.73047,-0.11328 1.125,-0.27735 1.72265,-0.54688c0.21485,-0.09765 0.46485,-0.20703 0.80078,-0.34375c1.3086,1.23047 3.07813,2.66407 4.94141,4.16797c3.37109,2.72656 7.19141,5.81641 8.05078,7.60156c0.42188,0.88282 -0.03125,1.45704 -0.34375,1.72266c-0.45312,0.39063 -1.07422,0.51172 -1.41015,0.27734c-0.3711,-0.2539 -0.85547,-0.26953 -1.23829,-0.04296c-0.38281,0.23046 -0.60156,0.66406 -0.55078,1.10937c0.07813,0.72656 -0.58984,1.14453 -0.8789,1.28906c-0.73438,0.3711 -1.5,0.30469 -1.78516,0.03907c-0.32031,-0.29688 -0.78125,-0.38282 -1.1875,-0.23047c-0.41016,0.15234 -0.69531,0.52734 -0.73437,0.96484c-0.07032,0.75 -0.625,1.47266 -1.35157,1.75391c-0.35156,0.13281 -0.85937,0.21484 -1.3164,-0.20313c-0.28516,-0.25781 -0.67969,-0.35547 -1.04688,-0.26562c-0.375,0.08984 -0.67578,0.35937 -0.80469,0.71875c-0.04296,0.11718 -0.14062,0.39062 -1.21484,0.39062c-0.76172,0 -2.13672,-0.51562 -2.80859,-0.96094c-0.80469,-0.52734 -5.84766,-4.28906 -10.20313,-7.9375c-0.61328,-0.51562 -1.67187,-1.62109 -2.60547,-2.59765c-0.83203,-0.86719 -1.58984,-1.65235 -1.97656,-1.98438c-0.48828,-0.41015 -1.21094,-0.34765 -1.61719,0.13672c-0.40625,0.48438 -0.34765,1.20703 0.13672,1.61719c0.35547,0.30078 1.04297,1.02344 1.80078,1.81641c1.01953,1.0664 2.07813,2.17187 2.78907,2.76953c4.26562,3.57031 9.39453,7.42968 10.41796,8.09765c0.84375,0.55469 2.66016,1.33594 4.06641,1.33594c1.12891,0 2,-0.25781 2.60156,-0.76562c0.80469,0.3125 1.72266,0.3164 2.60547,-0.02735c1.04297,-0.40234 1.89844,-1.21875 2.38672,-2.20312c0.90234,0.1914 1.93359,0.05859 2.875,-0.41407c0.91797,-0.46484 1.58203,-1.17187 1.91406,-2c0.91016,0.05079 1.85157,-0.27343 2.62891,-0.9414c1.3125,-1.125 1.67578,-2.875 0.91406,-4.45313zm0,0"/>
  <path id="svg_2" fill-rule="nonzero" fill="rgb(54,98,246)" d="m22.91797,14.89453l-10.3125,0c-0.63281,0 -1.14844,0.51563 -1.14844,1.14844c0,0.62891 0.51563,1.14453 1.14844,1.14453l10.3125,0c0.63281,0 1.14453,-0.51562 1.14453,-1.14453c0,-0.63281 -0.51172,-1.14844 -1.14453,-1.14844zm0,0"/>
  <path id="svg_3" fill-rule="nonzero" fill="rgb(54,98,246)" d="m46.78516,31.44531c-0.35547,-0.52734 -1.06641,-0.67187 -1.58985,-0.3125l-3.35156,2.25c-0.52344,0.35157 -0.66406,1.06641 -0.3125,1.58985c0.22266,0.32812 0.58594,0.50781 0.95313,0.50781c0.21875,0 0.4414,-0.0625 0.63671,-0.19531l3.35157,-2.25c0.52343,-0.35547 0.66406,-1.06641 0.3125,-1.58985zm0,0"/>
  <path id="svg_4" fill-rule="nonzero" fill="rgb(54,98,246)" d="m39.67188,36.91016c-0.82032,-0.64453 -4.49219,-4.40235 -6.75782,-6.76563c-0.4375,-0.45703 -1.16406,-0.47265 -1.62109,-0.03515c-0.45703,0.4375 -0.47266,1.16406 -0.03516,1.62109c0.58985,0.61328 5.78516,6.02734 6.99219,6.98437c0.20703,0.16407 0.46094,0.24219 0.70703,0.24219c0.33985,0 0.67578,-0.14844 0.90235,-0.4375c0.39453,-0.49609 0.30859,-1.21484 -0.1875,-1.60937zm0,0"/>
  <path id="svg_5" fill-rule="nonzero" fill="rgb(54,98,246)" d="m35.09375,39.21094c-1.375,-1.09766 -4.82422,-4.76172 -5.60156,-5.60938c-0.4336,-0.46875 -1.15235,-0.49609 -1.6211,-0.07031c-0.46484,0.42969 -0.49609,1.15625 -0.07031,1.62109c0.04297,0.04297 4.16016,4.48829 5.85938,5.84766c0.21093,0.16797 0.46484,0.25 0.71484,0.25c0.33594,0 0.66797,-0.14844 0.89453,-0.42969c0.39453,-0.49609 0.31641,-1.21484 -0.17578,-1.60937zm0,0"/>
  <path id="svg_6" fill-rule="nonzero" fill="rgb(54,98,246)" d="m30.53125,41.51953c-1.63281,-1.3789 -4.97656,-4.9375 -5.62891,-5.63672c-0.43359,-0.46484 -1.16015,-0.48828 -1.62109,-0.05468c-0.46484,0.43359 -0.48437,1.15625 -0.05469,1.62109c0.9375,1.00391 4.13672,4.39453 5.82813,5.82031c0.21484,0.1836 0.47656,0.27344 0.73828,0.27344c0.32422,0 0.64844,-0.14063 0.875,-0.41016c0.41016,-0.48437 0.34766,-1.20703 -0.13672,-1.61328zm0,0"/>
  <path id="svg_7" fill-rule="nonzero" fill="rgb(54,98,246)" d="m13.39063,12.91797c-1.96094,-1.85938 -9.81641,-2.46484 -12.17579,-2.60547c-0.32421,-0.01562 -0.625,0.09375 -0.85546,0.3125c-0.23047,0.21484 -0.35938,0.51563 -0.35938,0.83203l0,20.625c0,0.63281 0.51172,1.14844 1.14453,1.14844l6.875,0c0.4961,0 0.9375,-0.32031 1.08985,-0.79297c0.16796,-0.51172 4.11718,-12.63281 4.63671,-18.58984c0.02735,-0.34766 -0.09765,-0.69141 -0.35546,-0.92969zm-6.20704,18.01953l-4.89062,0l0,-18.25c3.67969,0.28906 7.65625,0.92188 9.09766,1.625c-0.60547,5.01563 -3.35547,13.93359 -4.20704,16.625zm0,0"/>
  <path id="svg_8" fill-rule="nonzero" fill="rgb(54,98,246)" d="m53.85547,12.60547c-9,0 -13.98828,2.30078 -14.19922,2.39844c-0.29687,0.14062 -0.51953,0.39843 -0.60937,0.71093c-0.09375,0.31641 -0.04688,0.65235 0.125,0.92969c1.41406,2.28125 5.85156,14.94531 6.70312,18.03516c0.13672,0.49609 0.58984,0.83984 1.10547,0.83984l6.875,0c0.63281,0 1.14453,-0.51172 1.14453,-1.14453l0,-20.625c0,-0.63672 -0.51172,-1.14453 -1.14453,-1.14453zm-1.14844,20.625l-4.87109,0c-1.08594,-3.53906 -4.29297,-12.76563 -6.08594,-16.57813c1.75,-0.59375 5.50781,-1.61328 10.95703,-1.74218l0,18.32031zm0,0"/>
  <pattern height="1" width="1" patternContentUnits="objectBoundingBox" id="pattern0">
   <use id="svg_9" transform="scale(0.0217391)" xlink:href="#image0"/>
  </pattern>
 </defs>
 <g>
  <title>Layer 1</title>
  <path id="svg_10" fill="#2563FF" d="m75,0l-40,0c-19.33,0 -35,15.67 -35,35l0,40c0,19.33 15.67,35 35,35l40,0c19.33,0 35,-15.67 35,-35l0,-40c0,-19.33 -15.67,-35 -35,-35z" opacity="0.09"/>
  <rect id="svg_11" fill="url(#pattern0)" height="46" width="46" y="64" x="32"/>
  <g stroke="null">
   <g stroke="null" id="svg_12">
    <path stroke="null" fill-rule="nonzero" fill="rgb(54,98,246)" d="m74.87893,62.96809c-1.34573,-2.8085 -6.16797,-6.7092 -10.82443,-10.47825c-2.59397,-2.09663 -5.05141,-4.0811 -6.61656,-5.64626c-0.39007,-0.39494 -0.97517,-0.52171 -1.49203,-0.33643c-0.96541,0.35106 -1.56028,0.61924 -2.02836,0.82891c-0.71675,0.31692 -0.95566,0.42908 -1.92109,0.52659c-0.4242,0.03901 -0.8094,0.26817 -1.04831,0.62411c-2.01861,3.02305 -4.11524,2.76461 -5.51461,2.29653c-0.44371,-0.14627 -0.5266,-0.3413 -0.57048,-0.52171c-0.29743,-1.25798 1.20922,-4.17863 3.16443,-6.13386c4.64671,-4.65158 7.04563,-5.81691 12.10679,-3.5545c5.74377,2.56958 11.49731,4.58331 11.55581,4.60282c0.75576,0.25842 1.56516,-0.13653 1.82358,-0.88253c0.25842,-0.74601 -0.13652,-1.56028 -0.88253,-1.82358c-0.0585,-0.01951 -5.69502,-1.98936 -11.32665,-4.51018c-6.55804,-2.9304 -10.15644,-0.99955 -15.2956,4.14449c-1.96011,1.95523 -4.61745,5.91443 -3.92996,8.81558c0.29255,1.23847 1.16533,2.15026 2.45744,2.57934c3.24245,1.06781 6.19723,0.04388 8.40113,-2.87677c0.91179,-0.1414 1.40425,-0.34619 2.15025,-0.68263c0.26818,-0.12189 0.58024,-0.25842 0.99955,-0.42908c1.63342,1.5359 3.84219,3.32535 6.16798,5.20256c4.20787,3.40336 8.97649,7.26018 10.04917,9.48844c0.5266,1.10196 -0.03901,1.81871 -0.42908,2.15026c-0.56559,0.48759 -1.34087,0.63874 -1.76018,0.34618c-0.46322,-0.31692 -1.06782,-0.33643 -1.54566,-0.05362c-0.47783,0.28767 -0.75088,0.8289 -0.6875,1.38474c0.09752,0.90691 -0.73625,1.42863 -1.09706,1.60903c-0.91667,0.46322 -1.87233,0.38032 -2.22828,0.04877c-0.39982,-0.37057 -0.97517,-0.47784 -1.48227,-0.28768c-0.51197,0.19015 -0.8679,0.65824 -0.91666,1.20434c-0.08778,0.93617 -0.78014,1.83821 -1.68706,2.18927c-0.43883,0.16578 -1.07269,0.26817 -1.64316,-0.25355c-0.35594,-0.3218 -0.8484,-0.44371 -1.30674,-0.33155c-0.46808,0.11214 -0.84352,0.44857 -1.00443,0.89716c-0.05362,0.14627 -0.17553,0.48758 -1.51639,0.48758c-0.9508,0 -2.6671,-0.64361 -3.50575,-1.19947c-1.00443,-0.65824 -7.29919,-5.3537 -12.73578,-9.90777c-0.76551,-0.64361 -2.08687,-2.02348 -3.25221,-3.24245c-1.03856,-1.08245 -1.98448,-2.0625 -2.46719,-2.47695c-0.60948,-0.51196 -1.51152,-0.43394 -2.01861,0.17066c-0.50709,0.60461 -0.43394,1.50664 0.17066,2.01861c0.44371,0.37544 1.30186,1.27748 2.24778,2.26729c1.2726,1.33111 2.59397,2.71098 3.48138,3.45699c5.32445,4.45654 11.72647,9.2739 13.00394,10.10768c1.05319,0.69238 3.32047,1.66755 5.07579,1.66755c1.40913,0 2.49645,-0.3218 3.24733,-0.95566c1.00443,0.39007 2.15026,0.39494 3.25221,-0.03414c1.30186,-0.50221 2.36968,-1.52127 2.97916,-2.74999c1.12632,0.23891 2.41355,0.07313 3.58864,-0.51685c1.14583,-0.58022 1.97473,-1.46276 2.38917,-2.49645c1.13608,0.0634 2.31117,-0.3413 3.28147,-1.17508c1.63829,-1.40425 2.09175,-3.58864 1.14095,-5.5585zm0,0"/>
    <path stroke="null" fill-rule="nonzero" fill="rgb(54,98,246)" d="m49.2806,39.26648l-12.8723,0c-0.78989,0 -1.43351,0.64362 -1.43351,1.43351c0,0.78502 0.64362,1.42863 1.43351,1.42863l12.8723,0c0.78989,0 1.42863,-0.64361 1.42863,-1.42863c0,-0.78989 -0.63874,-1.43351 -1.42863,-1.43351zm0,0"/>
    <path stroke="null" fill-rule="nonzero" fill="rgb(54,98,246)" d="m79.07218,59.92554c-0.44371,-0.65824 -1.33112,-0.83864 -1.98449,-0.39007l-4.1835,2.8085c-0.65337,0.43884 -0.8289,1.33112 -0.39007,1.98449c0.27793,0.40957 0.73138,0.63386 1.18972,0.63386c0.27305,0 0.55097,-0.07801 0.79476,-0.24379l4.18351,-2.8085c0.65336,-0.44371 0.8289,-1.33112 0.39007,-1.98449zm0,0"/>
    <path stroke="null" fill-rule="nonzero" fill="rgb(54,98,246)" d="m70.19322,66.7469c-1.02394,-0.80452 -5.60726,-5.49512 -8.43527,-8.44502c-0.5461,-0.57048 -1.45301,-0.58997 -2.02348,-0.04388c-0.57048,0.5461 -0.58999,1.45301 -0.04389,2.02348c0.73626,0.76551 7.22117,7.52347 8.72781,8.71805c0.25842,0.2048 0.57536,0.30231 0.88253,0.30231c0.42421,0 0.84352,-0.18529 1.12633,-0.5461c0.49246,-0.61923 0.38519,-1.51639 -0.23404,-2.00885zm0,0"/>
    <path stroke="null" fill-rule="nonzero" fill="rgb(54,98,246)" d="m64.47869,69.61878c-1.71631,-1.37012 -6.0217,-5.94369 -6.992,-7.00176c-0.54123,-0.5851 -1.43839,-0.61923 -2.02349,-0.08776c-0.58022,0.53635 -0.61923,1.44326 -0.08776,2.02348c0.05364,0.05364 5.19281,5.60239 7.31381,7.29919c0.26329,0.20966 0.58022,0.31206 0.89228,0.31206c0.41933,0 0.83378,-0.18529 1.11657,-0.53635c0.49246,-0.61923 0.39495,-1.51639 -0.21941,-2.00885zm0,0"/>
    <path stroke="null" fill-rule="nonzero" fill="rgb(54,98,246)" d="m58.78368,72.50042c-2.03811,-1.72118 -6.21186,-6.1631 -7.02614,-7.03589c-0.54122,-0.58022 -1.44813,-0.60948 -2.02348,-0.06825c-0.58022,0.54122 -0.6046,1.44326 -0.06827,2.02348c1.17021,1.2531 5.16355,5.48535 7.27481,7.26505c0.26817,0.22917 0.59485,0.34131 0.92154,0.34131c0.4047,0 0.8094,-0.17554 1.0922,-0.51197c0.51197,-0.6046 0.43396,-1.50664 -0.17066,-2.01373zm0,0"/>
    <path stroke="null" fill-rule="nonzero" fill="rgb(54,98,246)" d="m37.38835,36.79929c-2.44769,-2.32092 -12.25307,-3.07667 -15.1981,-3.25221c-0.40469,-0.0195 -0.78014,0.11702 -1.06781,0.39007c-0.28768,0.26817 -0.44859,0.64362 -0.44859,1.03856l0,25.74461c0,0.78989 0.63874,1.43351 1.42863,1.43351l8.58154,0c0.61924,0 1.17021,-0.39982 1.36038,-0.9898c0.20965,-0.63874 5.13916,-15.76857 5.78765,-23.20427c0.03414,-0.43396 -0.12189,-0.86303 -0.44369,-1.16046zm-7.74777,22.4924l-6.10459,0l0,-22.78007c4.59307,0.36081 9.55671,1.15071 11.35591,2.02836c-0.75576,6.26063 -4.18838,17.39223 -5.25133,20.75171zm0,0"/>
    <path stroke="null" fill-rule="nonzero" fill="rgb(54,98,246)" d="m87.89751,36.40922c-11.23401,0 -17.4605,2.87189 -17.7238,2.99379c-0.37056,0.17553 -0.64849,0.49733 -0.76063,0.8874c-0.11702,0.39495 -0.05852,0.81428 0.15603,1.16046c1.76506,2.84751 7.30405,18.65508 8.36699,22.51191c0.17066,0.61923 0.73625,1.04831 1.37987,1.04831l8.58154,0c0.78989,0 1.42863,-0.63874 1.42863,-1.42863l0,-25.74461c0,-0.79477 -0.63874,-1.42863 -1.42863,-1.42863zm-1.43351,25.74461l-6.08021,0c-1.3555,-4.41754 -5.35859,-15.93436 -7.59661,-20.69321c2.18439,-0.74113 6.87498,-2.01373 13.67682,-2.17463l0,22.86784zm0,0"/>
   </g>
  </g>
 </g>
</svg>