<svg xmlns="http://www.w3.org/2000/svg" data-v-fde0c5aa="" class="iconLeft" viewBox="40 126.13 220 47.74"><!----><defs data-v-fde0c5aa=""><!----></defs><rect data-v-fde0c5aa="" fill="none" x="0" y="0" width="300px" height="300px" class="logo-background-square"/><defs data-v-fde0c5aa=""><!----></defs><g data-v-fde0c5aa="" id="d5c47fa3-67bd-491b-83d2-c3f2dcfd96c1" fill="#000000" transform="matrix(2.8416416471854844,0,0,2.8416416471854844,108.79625144407999,129.71067901849574)"><path d="M5.18 2.38L-0.07 12.60L2.03 12.60L3.16 10.22L7.20 10.22L8.33 12.60L10.43 12.60ZM5.18 6.02L6.38 8.54L3.98 8.54ZM15.09 3.71L15.81 2.20C15.68 2.03 15.47 1.88 15.17 1.74C14.87 1.61 14.51 1.54 14.11 1.54C13.27 1.54 12.62 1.76 12.17 2.19C11.71 2.63 11.48 3.20 11.48 3.92L11.48 6.16L10.57 6.16L10.57 7.77L11.48 7.77L11.48 12.60L13.37 12.60L13.37 7.77L14.98 7.77L14.98 6.16L13.37 6.16L13.37 4.27C13.37 3.91 13.45 3.64 13.60 3.47C13.75 3.30 13.95 3.22 14.18 3.22C14.59 3.22 14.90 3.38 15.09 3.71ZM19.98 3.71L20.69 2.20C20.57 2.03 20.36 1.88 20.05 1.74C19.75 1.61 19.40 1.54 19.00 1.54C18.16 1.54 17.51 1.76 17.05 2.19C16.59 2.63 16.37 3.20 16.37 3.92L16.37 6.16L15.46 6.16L15.46 7.77L16.37 7.77L16.37 12.60L18.26 12.60L18.26 7.77L19.87 7.77L19.87 6.16L18.26 6.16L18.26 4.27C18.26 3.91 18.33 3.64 18.49 3.47C18.64 3.30 18.83 3.22 19.07 3.22C19.48 3.22 19.78 3.38 19.98 3.71ZM28.87 7.52L29.58 12.60L31.61 12.60L30.07 2.45L26.01 8.64L21.95 2.45L20.41 12.60L22.44 12.60L23.16 7.52L26.01 11.69ZM33.24 8.15C33.43 8.01 33.73 7.87 34.14 7.73C34.54 7.59 34.95 7.52 35.36 7.52C36.22 7.52 36.65 7.80 36.65 8.37L36.65 9.02C36.13 8.75 35.46 8.61 34.64 8.61C34.37 8.61 34.09 8.65 33.82 8.72C33.54 8.80 33.27 8.91 33.00 9.07C32.74 9.23 32.52 9.46 32.35 9.75C32.19 10.04 32.10 10.39 32.10 10.78C32.10 11.41 32.33 11.89 32.78 12.23C33.23 12.57 33.86 12.74 34.66 12.74C35.64 12.74 36.31 12.41 36.65 11.75L36.65 12.60L38.54 12.60L38.54 7.98C38.54 7.31 38.26 6.80 37.69 6.46C37.12 6.12 36.34 5.95 35.36 5.95C34.84 5.95 34.34 6.04 33.86 6.22C33.38 6.39 32.99 6.59 32.69 6.80ZM34.01 10.58C34.01 10.08 34.47 9.83 35.39 9.83C35.87 9.83 36.29 9.90 36.65 10.04L36.65 10.08C36.65 10.51 36.51 10.82 36.22 11.03C35.93 11.23 35.55 11.33 35.08 11.33C34.76 11.33 34.50 11.26 34.30 11.13C34.10 11.00 34.01 10.82 34.01 10.58ZM44.41 8.15L45.37 6.64C45.03 6.22 44.51 6.01 43.82 6.01C43.19 6.01 42.64 6.35 42.18 7.03L42.18 6.16L40.22 6.16L40.22 12.60L42.18 12.60L42.18 9.02C42.18 8.57 42.27 8.26 42.45 8.09C42.64 7.91 42.93 7.83 43.33 7.83C43.75 7.83 44.11 7.93 44.41 8.15ZM46.28 1.68L46.28 12.60L48.17 12.60L48.17 9.25L50.83 12.60L53.21 12.60L50.20 8.82L52.93 6.16L50.50 6.16L48.17 8.43L48.17 1.68Z"/></g><defs data-v-fde0c5aa=""><linearGradient data-v-fde0c5aa="" gradientTransform="rotate(25)" id="f895abff-f873-4757-b8d7-8d1c2b97a9bf" x1="0%" y1="0%" x2="100%" y2="0%"><stop data-v-fde0c5aa="" offset="0%" stop-color="#0A3732" stop-opacity="1"/><stop data-v-fde0c5aa="" offset="100%" stop-color="#55C388" stop-opacity="1"/></linearGradient></defs><g data-v-fde0c5aa="" id="587c60ab-2377-4de5-9a8d-fc67e1a0e246" stroke="none" fill="url(#f895abff-f873-4757-b8d7-8d1c2b97a9bf)" transform="matrix(0.617748183408425,0,0,0.617748183408425,36.911259082957876,119.11259141870933)"><path d="M95 64.574L69.711 11.36 19.015 58.531l7.969 17.611 6.23-1.059 6.16 13.557L65.08 76.96l-3.078-6.774L95 64.574zM60.488 75.237l-19.391 8.811-4.347-9.567 21.716-3.693 2.022 4.449zM13.816 60.805l7.906 17.633-8.816 3.953L5 64.758l8.816-3.953z"/></g><!----></svg>
